<?xml version="1.0" encoding="UTF-8"?>
<svg version="1.1" xmlns="http://www.w3.org/2000/svg" width="387" height="159">
<path d="M0 0 C9.19481363 3.3601917 18.04451179 7.21085476 26.88354492 11.40136719 C28.92987957 12.3713877 30.97926746 13.33469128 33.02929688 14.296875 C37.02892156 16.17852444 41.01717415 18.08307605 45 20 C45.66043304 20.31691803 46.32086609 20.63383606 47.00131226 20.96035767 C48.92386709 21.88671641 50.84153261 22.82245923 52.7578125 23.76171875 C53.86656738 24.30272217 54.97532227 24.84372559 56.11767578 25.40112305 C59.85325469 27.47331568 63.54599246 29.84232437 65 34 C64.74769942 41.34194698 62.23359181 48.07603403 59.9375 55 C59.37192383 56.73443359 59.37192383 56.73443359 58.79492188 58.50390625 C57.86970552 61.3381133 56.93792289 64.16997782 56 67 C56.73597412 67.03963867 57.47194824 67.07927734 58.23022461 67.12011719 C162.95566061 72.95566061 162.95566061 72.95566061 178 88 C170.49537493 87.48106316 163.34220703 86.35057786 156 84.75 C126.57006255 78.67181154 96.96219838 75.79041026 67 74 C65.83388184 73.92797363 64.66776367 73.85594727 63.46630859 73.78173828 C29.36746106 71.76395999 -4.9437301 72.70432567 -39 75 C-39.726427 75.0485614 -40.452854 75.0971228 -41.20129395 75.14715576 C-68.81852621 77.02302242 -96.68323068 80.52135087 -123.65185547 86.88256836 C-127.51587913 87.78469206 -131.03214329 88.15920413 -135 88 C-132.85523202 85.85523202 -131.86171858 85.48993199 -129.01953125 84.66796875 C-128.19831787 84.42941162 -127.37710449 84.19085449 -126.53100586 83.94506836 C-125.18534546 83.57007202 -125.18534546 83.57007202 -123.8125 83.1875 C-122.39626343 82.79220093 -122.39626343 82.79220093 -120.95141602 82.38891602 C-89.34143796 73.72818364 -53.90133301 67.0382116 -21 68 C-20.90348145 67.43474609 -20.80696289 66.86949219 -20.70751953 66.28710938 C-19.33510733 58.83048542 -17.17282471 51.71756994 -14.875 44.5 C-14.2732865 42.59029381 -13.67158452 40.68058385 -13.070755 38.77059937 C-12.66080172 37.46785282 -12.25022588 36.16530202 -11.83903503 34.86294556 C-10.42994262 30.39370296 -9.05587213 25.91514106 -7.69921875 21.4296875 C-7.33908691 20.24181641 -6.97895508 19.05394531 -6.60791016 17.83007812 C-5.92310766 15.56680747 -5.241665 13.30251685 -4.56396484 11.03710938 C-4.10111084 9.5144043 -4.10111084 9.5144043 -3.62890625 7.9609375 C-3.2278064 6.62748291 -3.2278064 6.62748291 -2.81860352 5.26708984 C-2 3 -2 3 0 0 Z M2 5 C-0.14759182 10.57670263 -2.04557219 16.17247977 -3.77734375 21.890625 C-4.15627525 23.12942413 -4.15627525 23.12942413 -4.54286194 24.39324951 C-5.34345669 27.01144619 -6.14075282 29.63063015 -6.9375 32.25 C-7.98639132 35.69328797 -9.03725298 39.13596618 -10.08984375 42.578125 C-10.34108002 43.40163452 -10.59231628 44.22514404 -10.85116577 45.0736084 C-12.57062645 50.68206105 -14.39303927 56.24158286 -16.33813477 61.77636719 C-17.14264061 64.09254777 -17.14264061 64.09254777 -17 67 C-15.03564443 66.88051348 -15.03564443 66.88051348 -13 66 C-11.82718191 63.84057876 -11.82718191 63.84057876 -11.140625 61.09375 C-10.83318359 60.050979 -10.52574219 59.00820801 -10.20898438 57.93383789 C-9.89251953 56.80067139 -9.57605469 55.66750488 -9.25 54.5 C-8.55902472 52.13360785 -7.86626665 49.76773566 -7.171875 47.40234375 C-6.81802734 46.18272949 -6.46417969 44.96311523 -6.09960938 43.70654297 C-4.02232603 36.70447464 -1.72085125 29.77334869 0.56152344 22.8359375 C0.8815332 21.84980469 1.20154297 20.86367187 1.53125 19.84765625 C1.81548828 18.98148682 2.09972656 18.11531738 2.39257812 17.22290039 C3.13179625 14.90174917 3.13179625 14.90174917 3 12 C11.50015742 13.68399345 19.48472662 16.46100563 27.64453125 19.34179688 C28.67707031 19.69693359 29.70960938 20.05207031 30.7734375 20.41796875 C31.70591309 20.74563232 32.63838867 21.0732959 33.59912109 21.41088867 C36.12098926 22.25588835 36.12098926 22.25588835 39 21 C34.69672344 19.03896486 30.39166849 17.08190669 26.08496094 15.12841797 C24.62190731 14.46412827 23.15933451 13.79877849 21.69726562 13.13232422 C19.58851422 12.17131966 17.47802942 11.21421492 15.3671875 10.2578125 C14.72006805 9.96190216 14.07294861 9.66599182 13.40621948 9.3611145 C9.66347931 7.67052126 5.91845777 6.22880304 2 5 Z M6 16 C3.73533898 21.93615692 1.63239196 27.90972626 -0.375 33.9375 C-0.67809082 34.84757812 -0.98118164 35.75765625 -1.29345703 36.6953125 C-3.24548885 42.60394285 -5.11560855 48.53115545 -6.875 54.5 C-7.07786621 55.18698975 -7.28073242 55.87397949 -7.48974609 56.58178711 C-8.48966375 60.03223761 -9.36086286 63.46434771 -10 67 C-8.68 67 -7.36 67 -6 67 C-2.0799326 55.46709877 1.7089491 43.91449735 5.13330078 32.22363281 C5.3651709 31.4344043 5.59704102 30.64517578 5.8359375 29.83203125 C6.03751465 29.13827393 6.2390918 28.4445166 6.44677734 27.72973633 C7 26 7 26 8 24 C16.00076384 24.78763996 23.83480091 26.1640823 31.73632812 27.62695312 C36.54733602 28.49274426 41.08704063 29.25945782 46 29 C42.54114456 26.69409637 39.04942477 25.61465404 35.12109375 24.3984375 C34.35322037 24.1571109 33.58534698 23.9157843 32.79420471 23.66714478 C31.17349894 23.15893722 29.55205425 22.65308096 27.92993164 22.14941406 C25.44165208 21.37629008 22.95605049 20.59499244 20.47070312 19.8125 C18.89598515 19.31982698 17.32112024 18.82762332 15.74609375 18.3359375 C15.00024521 18.10160004 14.25439667 17.86726257 13.48594666 17.62582397 C9.81214027 16.42236442 9.81214027 16.42236442 6 16 Z M40 32 C38.99534271 35.12352227 37.99707073 38.24904853 37 41.375 C36.57074219 42.70917969 36.57074219 42.70917969 36.1328125 44.0703125 C35.86210937 44.92109375 35.59140625 45.771875 35.3125 46.6484375 C35.06113281 47.43395996 34.80976563 48.21948242 34.55078125 49.02880859 C33.9102974 50.97992105 33.9102974 50.97992105 34 53 C34.68707031 52.96519531 35.37414062 52.93039063 36.08203125 52.89453125 C36.98308594 52.86746094 37.88414062 52.84039062 38.8125 52.8125 C40.15248047 52.76029297 40.15248047 52.76029297 41.51953125 52.70703125 C44.46013665 53.05434685 45.10494854 53.83178796 47 56 C47.66 56 48.32 56 49 56 C50.0070436 52.8980736 51.00440805 49.79311902 52 46.6875 C52.28617188 45.80642578 52.57234375 44.92535156 52.8671875 44.01757812 C53.27324219 42.74624023 53.27324219 42.74624023 53.6875 41.44921875 C53.93886719 40.66893311 54.19023437 39.88864746 54.44921875 39.0847168 C55.12771753 36.87596151 55.12771753 36.87596151 55 34 C53.62705778 33.65828994 52.25149882 33.32708883 50.875 33 C50.10929687 32.814375 49.34359375 32.62875 48.5546875 32.4375 C45.66526648 31.9426756 42.92602801 31.93215008 40 32 Z " fill="#B63205" transform="translate(180,70)"/>
<path d="M0 0 C-2.82517671 2.82517671 -5.69507096 2.47109268 -9.49609375 2.67578125 C-11.08539976 2.77921449 -12.67467247 2.88316032 -14.26391602 2.98754883 C-15.10624786 3.03988678 -15.94857971 3.09222473 -16.81643677 3.14614868 C-43.74258281 4.85507346 -70.20664624 8.47559278 -96.58813477 14.12036133 C-97.74112061 14.3655249 -98.89410645 14.61068848 -100.08203125 14.86328125 C-101.08468018 15.08282471 -102.0873291 15.30236816 -103.12036133 15.52856445 C-106.12947472 16.02119675 -108.95630617 16.08221618 -112 16 C-109.85523202 13.85523202 -108.86171858 13.48993199 -106.01953125 12.66796875 C-105.19598145 12.42908936 -104.37243164 12.19020996 -103.52392578 11.9440918 C-102.18177002 11.56957886 -102.18177002 11.56957886 -100.8125 11.1875 C-99.88937012 10.92686768 -98.96624023 10.66623535 -98.01513672 10.39770508 C-82.20462091 6.02918447 -66.0335829 1.75010393 -49.5625 2.0625 C-40.47271979 2.1598123 -31.55235385 1.55740712 -22.50610352 0.71557617 C-14.97036981 0.0300591 -7.57030611 -0.23990407 0 0 Z " fill="#B93F1A" transform="translate(157,142)"/>
<path d="M0 0 C0 0.66 0 1.32 0 2 C-2.31 1.67 -4.62 1.34 -7 1 C-7.20568604 1.67764404 -7.41137207 2.35528809 -7.62329102 3.0534668 C-12.20236789 18.11097466 -16.93768245 33.09780271 -22 48 C-23.32 47.67 -24.64 47.34 -26 47 C-22.37559588 34.8362801 -18.6581548 22.70075922 -14.75 10.625 C-14.42128906 9.57957031 -14.09257812 8.53414062 -13.75390625 7.45703125 C-13.43808594 6.49410156 -13.12226563 5.53117187 -12.796875 4.5390625 C-12.52198242 3.68521973 -12.24708984 2.83137695 -11.96386719 1.95166016 C-11.64579102 1.3076123 -11.32771484 0.66356445 -11 0 C-6.94952424 -1.35015859 -4.2079832 -0.62084998 0 0 Z " fill="#AF2002" transform="translate(193,86)"/>
<path d="M0 0 C0.33 0.99 0.66 1.98 1 3 C1.99 2.67 2.98 2.34 4 2 C4 2.99 4 3.98 4 5 C3.34 5 2.68 5 2 5 C2 5.99 2 6.98 2 8 C-0.04907821 9.02453911 -2.05879383 10.02351753 -4.1875 10.875 C-6.18060864 11.81826607 -6.18060864 11.81826607 -6.4375 13.8125 C-7.30029543 17.16781556 -9.45247645 18.75575306 -12 21 C-12.99 21.33 -13.98 21.66 -15 22 C-15.66 21.67 -16.32 21.34 -17 21 C-17 21.66 -17 22.32 -17 23 C-16.34 23.33 -15.68 23.66 -15 24 C-16.32 24.33 -17.64 24.66 -19 25 C-19 25.99 -19 26.98 -19 28 C-19.99 28 -20.98 28 -22 28 C-22 28.99 -22 29.98 -22 31 C-23.32 30.67 -24.64 30.34 -26 30 C-26 26 -26 26 -24.7578125 24.296875 C-24.21898437 23.78640625 -23.68015625 23.2759375 -23.125 22.75 C-22.59132812 22.22921875 -22.05765625 21.7084375 -21.5078125 21.171875 C-20 20 -20 20 -18 20 C-17.7628125 19.43796875 -17.525625 18.8759375 -17.28125 18.296875 C-15.71052303 15.48105958 -13.78528536 13.52044584 -11.5 11.25 C-10.7059375 10.45078125 -9.911875 9.6515625 -9.09375 8.828125 C-7 7 -7 7 -5 7 C-4.34 5.68 -3.68 4.36 -3 3 C-2.01 3 -1.02 3 0 3 C0 2.01 0 1.02 0 0 Z " fill="#BD4211" transform="translate(213,107)"/>
<path d="M0 0 C10.94988523 0.84506503 10.94988523 0.84506503 15.8125 1.5625 C18.96430779 2.09559326 18.96430779 2.09559326 22.0234375 1.84765625 C27.24307478 2.04762271 31.8260807 3.39524824 36.8125 4.875 C37.76576172 5.14441406 38.71902344 5.41382813 39.70117188 5.69140625 C46.73535839 7.73535839 46.73535839 7.73535839 49 10 C41.02885248 9.46134217 33.37348 8.21324932 25.5625 6.5625 C23.46004623 6.12432627 21.35718096 5.68812229 19.25390625 5.25390625 C17.71887451 4.93510498 17.71887451 4.93510498 16.15283203 4.60986328 C11.8821369 3.78376785 7.58787618 3.1494694 3.28100586 2.54272461 C2.52827393 2.36362549 1.77554199 2.18452637 1 2 C0.67 1.34 0.34 0.68 0 0 Z " fill="#AF3A13" transform="translate(309,148)"/>
<path d="M0 0 C-3.13498292 1.85776765 -5.37471432 2.20140476 -9 2 C-9 2.66 -9 3.32 -9 4 C-11.70647467 4.67511172 -14.41477185 5.34027341 -17.125 6 C-18.26582031 6.28617188 -18.26582031 6.28617188 -19.4296875 6.578125 C-23.71588834 7.6127252 -27.55400901 8.2272711 -32 8 C-29.72147717 5.72147717 -28.41753999 5.37945951 -25.3515625 4.52734375 C-23.96710937 4.13772461 -23.96710937 4.13772461 -22.5546875 3.74023438 C-21.58789062 3.47533203 -20.62109375 3.21042969 -19.625 2.9375 C-18.6659375 2.66873047 -17.706875 2.39996094 -16.71875 2.12304688 C-14.14837847 1.405276 -11.57698585 0.69363914 -9 0 C-8.29536621 -0.20165771 -7.59073242 -0.40331543 -6.86474609 -0.61108398 C-4.38141363 -1.12901389 -2.43495956 -0.60873989 0 0 Z " fill="#AF3C15" transform="translate(77,150)"/>
<path d="M0 0 C0.66 0 1.32 0 2 0 C2.33 0.99 2.66 1.98 3 3 C5.49759982 4.69882448 5.49759982 4.69882448 8 6 C7.34 6.66 6.68 7.32 6 8 C5.01 8 4.02 8 3 8 C2.67 9.65 2.34 11.3 2 13 C1.34 13 0.68 13 0 13 C-0.33 11.35 -0.66 9.7 -1 8 C-2.65 7.67 -4.3 7.34 -6 7 C-5 5 -5 5 -2 4 C-0.79117904 1.99983534 -0.79117904 1.99983534 0 0 Z " fill="#B02F0A" transform="translate(176,53)"/>
<path d="M0 0 C5.14987929 1.36320334 8.20407039 4.61312055 11 9 C11.375 11.9375 11.375 11.9375 11 14 C10.34 13.01 9.68 12.02 9 11 C7.08092727 8.91405138 5.40201436 7.60134291 3 6 C2.67 6.99 2.34 7.98 2 9 C-0.31 8.67 -2.62 8.34 -5 8 C-4.67 6.68 -4.34 5.36 -4 4 C-2.35 4.33 -0.7 4.66 1 5 C0.67 3.35 0.34 1.7 0 0 Z " fill="#B42C03" transform="translate(234,95)"/>
<path d="M0 0 C0 0.33 0 0.66 0 1 C2.475 1.495 2.475 1.495 5 2 C5 2.66 5 3.32 5 4 C-4.24 4 -13.48 4 -23 4 C-23 3.67 -23 3.34 -23 3 C-15.47111623 0.5449292 -7.91405963 -0.20826473 0 0 Z " fill="#B73708" transform="translate(154,139)"/>
<path d="M0 0 C7.34164374 0.59288188 14.67386859 1.238212 22 2 C22 2.66 22 3.32 22 4 C23.32 4 24.64 4 26 4 C25.67 4.66 25.34 5.32 25 6 C21.01848714 5.38937396 17.04033394 4.75911485 13.0625 4.125 C11.92619141 3.95097656 10.78988281 3.77695313 9.61914062 3.59765625 C8.53955078 3.42363281 7.45996094 3.24960938 6.34765625 3.0703125 C5.34742432 2.91320801 4.34719238 2.75610352 3.31665039 2.59423828 C2.55215576 2.39813965 1.78766113 2.20204102 1 2 C0.67 1.34 0.34 0.68 0 0 Z " fill="#BD4629" transform="translate(309,148)"/>
<path d="M0 0 C1.43836751 0.11458693 2.87570966 0.24209116 4.3125 0.375 C5.51326172 0.47941406 5.51326172 0.47941406 6.73828125 0.5859375 C9 1 9 1 12 3 C12 3.66 12 4.32 12 5 C12.99 5.33 13.98 5.66 15 6 C13.68 6.33 12.36 6.66 11 7 C10.67 6.01 10.34 5.02 10 4 C6.37 4 2.74 4 -1 4 C-0.67 2.68 -0.34 1.36 0 0 Z " fill="#BB3212" transform="translate(183,82)"/>
<path d="M0 0 C8.18088206 0.5466488 16.01785939 2.17123868 24 4 C19.69196718 6.68122322 16.67106554 5.69470501 11.90625 4.71484375 C7.84654333 3.71628687 3.91878322 2.45140119 0 1 C0 0.67 0 0.34 0 0 Z " fill="#B12B05" transform="translate(306,145)"/>
<path d="M0 0 C0.66 0.33 1.32 0.66 2 1 C2 1.66 2 2.32 2 3 C3.32 3.33 4.64 3.66 6 4 C4.71937515 5.7074998 3.38232443 7.37373596 2 9 C1.34 9 0.68 9 0 9 C-1.38232443 7.37373596 -2.71937515 5.7074998 -4 4 C-2.68 3.67 -1.36 3.34 0 3 C0 2.01 0 1.02 0 0 Z " fill="#B13A16" transform="translate(186,62)"/>
<path d="M0 0 C1.65 0 3.3 0 5 0 C4.01 0.33 3.02 0.66 2 1 C1.67 1.99 1.34 2.98 1 4 C-1.26838256 4.38955051 -3.53984687 4.76119129 -5.8125 5.125 C-7.07707031 5.33382812 -8.34164062 5.54265625 -9.64453125 5.7578125 C-13 6 -13 6 -16 4 C-13.70858188 3.66496236 -11.41685737 3.33201958 -9.125 3 C-7.21074219 2.7215625 -7.21074219 2.7215625 -5.2578125 2.4375 C-2 2 -2 2 0 2 C0 1.34 0 0.68 0 0 Z " fill="#BB4B2B" transform="translate(99,145)"/>
<path d="M0 0 C2.64 0.99 5.28 1.98 8 3 C8 3.33 8 3.66 8 4 C6.35 4 4.7 4 3 4 C2.67 4.66 2.34 5.32 2 6 C1.01 6 0.02 6 -1 6 C-1 6.66 -1 7.32 -1 8 C-1.66 8 -2.32 8 -3 8 C-1.125 1.125 -1.125 1.125 0 0 Z " fill="#B63A10" transform="translate(180,70)"/>
<path d="M0 0 C4.37934119 0.51958285 8.68803391 1.05675742 13 2 C13 2.33 13 2.66 13 3 C8.9472484 3.98248524 5.16138263 4.08159574 1 4 C0.67 2.68 0.34 1.36 0 0 Z " fill="#B83B12" transform="translate(301,145)"/>
<path d="M0 0 C0.33 0 0.66 0 1 0 C0.5547115 5.27315333 -0.08373163 10.01770224 -2 15 C-1.34 15 -0.68 15 0 15 C0 15.66 0 16.32 0 17 C-1.32 17 -2.64 17 -4 17 C-3.35729017 11.0870696 -1.80996216 5.65755469 0 0 Z " fill="#B73B12" transform="translate(238,122)"/>
<path d="M0 0 C-3.13498292 1.85776765 -5.37471432 2.20140476 -9 2 C-9 2.66 -9 3.32 -9 4 C-11.64 3.67 -14.28 3.34 -17 3 C-11.79852428 -0.03419417 -5.87017658 -1.83443018 0 0 Z " fill="#AE2F0D" transform="translate(77,150)"/>
<path d="M0 0 C-0.99 0.33 -1.98 0.66 -3 1 C-3 1.66 -3 2.32 -3 3 C-7.29 3 -11.58 3 -16 3 C-16 2.67 -16 2.34 -16 2 C-10.61972975 0.80911014 -5.54708616 -0.2919519 0 0 Z " fill="#BE2704" transform="translate(97,145)"/>
<path d="M0 0 C0.66 0.66 1.32 1.32 2 2 C2.66 1.34 3.32 0.68 4 0 C3.44894091 3.9492568 2.61064629 7.34920174 1 11 C0.87625 10.360625 0.7525 9.72125 0.625 9.0625 C0.41875 8.381875 0.2125 7.70125 0 7 C-0.66 6.67 -1.32 6.34 -2 6 C-1.34 4.02 -0.68 2.04 0 0 Z " fill="#AC1900" transform="translate(180,91)"/>
<path d="M0 0 C1.32 1.32 2.64 2.64 4 4 C2.68 4.99 1.36 5.98 0 7 C-0.99 6.34 -1.98 5.68 -3 5 C-3 4.01 -3 3.02 -3 2 C-2.01 1.34 -1.02 0.68 0 0 Z " fill="#B42D0E" transform="translate(172,68)"/>
<path d="M0 0 C0.66 0 1.32 0 2 0 C3.60080151 4.00200378 2.29279692 7.04556236 1 11 C-0.98362069 8.08291076 -0.9876191 6.87619096 -0.625 3.25 C-0.41875 2.1775 -0.2125 1.105 0 0 Z " fill="#B22A07" transform="translate(169,104)"/>
<path d="M0 0 C2.31 0.33 4.62 0.66 7 1 C7 2.32 7 3.64 7 5 C4.69 4.67 2.38 4.34 0 4 C0 2.68 0 1.36 0 0 Z " fill="#A72501" transform="translate(229,99)"/>
<path d="M0 0 C1.32 0.99 2.64 1.98 4 3 C3.01 3 2.02 3 1 3 C0.87625 4.299375 0.7525 5.59875 0.625 6.9375 C0.4140625 9.15234375 0.4140625 9.15234375 0 11 C-0.99 11.495 -0.99 11.495 -2 12 C-1 3.42857143 -1 3.42857143 0 0 Z " fill="#B43B10" transform="translate(236,100)"/>
<path d="M0 0 C0.66 0 1.32 0 2 0 C1.67 2.31 1.34 4.62 1 7 C0.34 7 -0.32 7 -1 7 C-1.33 7.66 -1.66 8.32 -2 9 C-2 6.69 -2 4.38 -2 2 C-1.34 2 -0.68 2 0 2 C0 1.34 0 0.68 0 0 Z " fill="#B32C08" transform="translate(179,76)"/>
<path d="M0 0 C1.258125 0.12375 2.51625 0.2475 3.8125 0.375 C4.87404297 0.47941406 4.87404297 0.47941406 5.95703125 0.5859375 C8 1 8 1 11 3 C8.69 3.33 6.38 3.66 4 4 C4 3.34 4 2.68 4 2 C2.68 2 1.36 2 0 2 C0 1.34 0 0.68 0 0 Z " fill="#B02B0D" transform="translate(331,150)"/>
<path d="M0 0 C2.05078125 0.03255208 4.1015625 0.06510417 6.15234375 0.09765625 C5.82234375 0.75765625 5.49234375 1.41765625 5.15234375 2.09765625 C2.21484375 2.84765625 2.21484375 2.84765625 -0.84765625 3.09765625 C-1.50765625 2.43765625 -2.16765625 1.77765625 -2.84765625 1.09765625 C-1.84765625 0.09765625 -1.84765625 0.09765625 0 0 Z " fill="#BD3814" transform="translate(222.84765625,139.90234375)"/>
<path d="M0 0 C0.66 0 1.32 0 2 0 C1.25 6.75 1.25 6.75 -1 9 C-0.67 6.03 -0.34 3.06 0 0 Z " fill="#B22906" transform="translate(165,116)"/>
<path d="M0 0 C1.32 0 2.64 0 4 0 C4 1.32 4 2.64 4 4 C2.35 4.33 0.7 4.66 -1 5 C-0.67 3.35 -0.34 1.7 0 0 Z " fill="#B93E16" transform="translate(231,96)"/>
<path d="M0 0 C1.98 0 3.96 0 6 0 C5.67 0.99 5.34 1.98 5 3 C3.02 3.33 1.04 3.66 -1 4 C-0.67 2.68 -0.34 1.36 0 0 Z " fill="#B82E06" transform="translate(183,82)"/>
</svg>
